<svg width="215" height="221" viewBox="0 0 215 221" fill="none" xmlns="http://www.w3.org/2000/svg">
<g opacity="0.4">
<path d="M211.301 221H157.923C156.135 221 154.455 220.141 153.406 218.683L124.86 178.887C124.12 177.859 122.594 177.859 121.854 178.887L117.014 185.625L107.966 198.24C105.191 202.108 100.706 204.41 95.9274 204.41H88.1125C86.6019 204.41 85.7388 202.722 86.6019 201.494L107.503 172.365L113.839 163.525L142.539 123.515C144.019 121.458 147.087 121.458 148.566 123.515L214.307 215.153C216.049 217.593 214.307 220.969 211.301 220.969V221Z" fill="#84868C"/>
<path d="M99.6268 165.673L59.9357 221H3.70529C0.699549 221 -1.05765 217.608 0.699549 215.183L66.4404 123.545C67.9202 121.489 70.9875 121.489 72.4673 123.545L78.972 132.615L85.3072 141.455L99.6268 161.422C100.552 162.696 100.552 164.43 99.6268 165.704V165.673Z" fill="#84868C"/>
<path d="M137.684 112.633L110.525 150.495C109.045 152.551 105.977 152.551 104.498 150.495L91.6578 132.585L85.3226 123.745L75.8121 110.485L69.477 101.645L0.699554 5.8166C-1.04223 3.37639 0.699554 0 3.70529 0H57.0841C58.8721 0 60.5522 0.859444 61.6004 2.31743L101.168 57.46L107.503 66.3L117.014 79.56L123.349 88.4L137.669 108.367C138.594 109.641 138.594 111.375 137.669 112.649L137.684 112.633Z" fill="#EAEAEA"/>
<path d="M172.011 2.91597L124.875 68.6328C124.135 69.661 122.609 69.661 121.869 68.6328L116.166 60.6829C114.794 58.7645 114.794 56.1862 116.166 54.2678L123.38 44.2153L153.406 2.31743C154.454 0.859444 156.135 0 157.923 0H170.501C172.011 0 172.874 1.68819 172.011 2.91597Z" fill="#EAEAEA"/>
<path d="M214.307 5.8166L148.566 97.4549C147.087 99.5114 144.019 99.5114 142.539 97.4549L131.226 81.6933C130.301 80.4194 130.301 78.6852 131.226 77.4114L185.668 1.55007C186.362 0.583194 187.487 0 188.674 0H211.286C214.292 0 216.049 3.39174 214.292 5.8166H214.307Z" fill="#EAEAEA"/>
</g>
</svg>
