<svg width="245" height="72" viewBox="0 0 245 72" fill="none" xmlns="http://www.w3.org/2000/svg">
<path d="M47.1743 60H35.2571C34.8579 60 34.4829 59.8134 34.2488 59.4967L27.8756 50.8534C27.7104 50.63 27.3697 50.63 27.2046 50.8534L26.124 52.3167L24.104 55.0567C23.4845 55.8967 22.4831 56.3967 21.4163 56.3967H19.6716C19.3344 56.3967 19.1417 56.03 19.3344 55.7634L24.0007 49.4367L25.4151 47.5167L31.8227 38.8267C32.1531 38.38 32.8379 38.38 33.1683 38.8267L47.8453 58.73C48.2342 59.26 47.8453 59.9934 47.1743 59.9934V60Z" fill="#84868C"/>
<path d="M22.2423 47.9833L13.381 60H0.827213C0.156165 60 -0.23614 59.2633 0.156165 58.7366L14.8332 38.8333C15.1636 38.3866 15.8484 38.3866 16.1787 38.8333L17.6309 40.8033L19.0453 42.7233L22.2423 47.06C22.4487 47.3366 22.4487 47.7133 22.2423 47.99V47.9833Z" fill="#84868C"/>
<path d="M30.7388 36.4633L24.6753 44.6867C24.3449 45.1333 23.6601 45.1333 23.3297 44.6867L20.4632 40.7967L19.0488 38.8767L16.9255 35.9967L15.5112 34.0767L0.1562 13.2633C-0.232664 12.7333 0.1562 12 0.827248 12H12.7444C13.1436 12 13.5187 12.1867 13.7527 12.5033L22.5864 24.48L24.0008 26.4L26.124 29.28L27.5384 31.2L30.7353 35.5367C30.9418 35.8133 30.9418 36.19 30.7353 36.4667L30.7388 36.4633Z" fill="#D3A02A"/>
<path d="M38.4025 12.6333L27.8791 26.9067C27.7139 27.13 27.3732 27.13 27.2081 26.9067L25.9348 25.18C25.6285 24.7633 25.6285 24.2033 25.9348 23.7867L27.5453 21.6033L34.2489 12.5033C34.4829 12.1867 34.858 12 35.2572 12H38.0653C38.4025 12 38.5952 12.3667 38.4025 12.6333Z" fill="#D3A02A"/>
<path d="M47.8454 13.2633L33.1684 33.1667C32.838 33.6133 32.1532 33.6133 31.8228 33.1667L29.2969 29.7433C29.0905 29.4667 29.0905 29.09 29.2969 28.8133L41.4515 12.3367C41.6064 12.1267 41.8576 12 42.1226 12H47.1709C47.842 12 48.2343 12.7367 47.842 13.2633H47.8454Z" fill="#D3A02A"/>
<path d="M170.37 43.6287V28.4199H172.546L178.766 39.5235H177.627L183.745 28.4199H185.922L185.964 43.6287H183.424V32.6109H183.932L178.771 41.9077H177.573L172.29 32.6109H172.899V43.6287H170.381H170.37Z" fill="#EAEAEA"/>
<path d="M189.777 43.6287V28.4199H200.163V30.8099H192.419V41.2388H200.446V43.6287H189.777ZM192.216 37.0649V34.7379H199.286V37.0649H192.216Z" fill="#EAEAEA"/>
<path d="M206.281 43.6287V30.8099H201.564V28.4199H213.634V30.8099H208.917V43.6287H206.276H206.281Z" fill="#EAEAEA"/>
<path d="M215.629 43.6287V28.4199H221.464C223.362 28.4199 224.849 28.9002 225.924 29.8665C226.999 30.8327 227.539 32.1535 227.539 33.8345C227.539 34.9494 227.293 35.9043 226.806 36.7047C226.319 37.4995 225.624 38.117 224.72 38.5515C223.817 38.9861 222.736 39.2033 221.48 39.2033H217.11L218.271 37.9454V43.6402H215.629V43.6287ZM218.271 38.2428L217.11 36.8763H221.357C222.522 36.8763 223.4 36.6075 223.988 36.0701C224.576 35.5326 224.87 34.7893 224.87 33.8345C224.87 32.8797 224.576 32.1364 223.988 31.6046C223.4 31.0786 222.522 30.8099 221.357 30.8099H217.11L218.271 29.4205V38.2428ZM224.934 43.6287L221.335 38.1113H224.159L227.774 43.6287H224.929H224.934Z" fill="#EAEAEA"/>
<path d="M237.149 43.8461C236.053 43.8461 235.031 43.6517 234.09 43.2572C233.149 42.8627 232.331 42.3138 231.641 41.6048C230.951 40.8958 230.416 40.0668 230.036 39.1176C229.657 38.1685 229.469 37.1394 229.469 36.0187C229.469 34.8981 229.657 33.8517 230.036 32.9026C230.416 31.9535 230.951 31.1302 231.641 30.4269C232.331 29.7236 233.143 29.1747 234.079 28.7859C235.015 28.3971 236.037 28.197 237.149 28.197C238.261 28.197 239.261 28.3914 240.197 28.7745C241.133 29.1576 241.941 29.7008 242.625 30.404C243.31 31.1073 243.839 31.9363 244.219 32.8912C244.599 33.846 244.786 34.8923 244.786 36.0187C244.786 37.1451 244.593 38.1857 244.219 39.1348C243.839 40.0839 243.31 40.913 242.625 41.622C241.941 42.3309 241.133 42.8798 240.197 43.2629C239.261 43.646 238.245 43.8404 237.149 43.8404V43.8461ZM237.149 41.3704C237.866 41.3704 238.529 41.2389 239.133 40.9816C239.737 40.7186 240.261 40.3526 240.705 39.8724C241.149 39.3921 241.502 38.8318 241.753 38.18C242.005 37.5281 242.128 36.8134 242.128 36.0301C242.128 35.2468 242.005 34.5321 241.764 33.8803C241.524 33.2285 241.171 32.6625 240.716 32.1879C240.261 31.7076 239.732 31.3417 239.133 31.0787C238.529 30.8157 237.871 30.6899 237.149 30.6899C236.427 30.6899 235.764 30.8214 235.149 31.0787C234.534 31.3417 233.999 31.7133 233.555 32.1993C233.106 32.6853 232.753 33.2514 232.496 33.8918C232.24 34.5378 232.111 35.2525 232.111 36.0301C232.111 36.8077 232.24 37.5053 232.496 38.1571C232.753 38.8089 233.106 39.3749 233.555 39.8609C234.004 40.3469 234.534 40.7186 235.149 40.9816C235.764 41.2446 236.432 41.3704 237.149 41.3704Z" fill="#EAEAEA"/>
<path d="M163.642 43.7315H160.145C160.027 43.7315 159.915 43.6686 159.851 43.5714L157.979 40.7698C157.931 40.6955 157.829 40.6955 157.781 40.7698L157.466 41.2444L156.872 42.1306C156.69 42.405 156.396 42.5651 156.08 42.5651H155.567C155.471 42.5651 155.412 42.4451 155.471 42.3593L156.84 40.3067L157.257 39.6834L159.139 36.8704C159.236 36.7274 159.439 36.7274 159.535 36.8704L163.846 43.3198C163.958 43.4914 163.846 43.7315 163.648 43.7315H163.642Z" fill="#D3A02A"/>
<path d="M156.326 39.8434L153.727 43.7371H150.043C149.845 43.7371 149.733 43.497 149.845 43.3255L154.155 36.876C154.251 36.7331 154.455 36.7331 154.551 36.876L154.979 37.5164L155.396 38.1396L156.332 39.5461C156.391 39.6376 156.391 39.7577 156.332 39.8492L156.326 39.8434Z" fill="#D3A02A"/>
<path d="M158.819 36.1099L157.038 38.7743C156.942 38.9172 156.738 38.9172 156.642 38.7743L155.802 37.5164L155.385 36.8932L154.76 35.9612L154.342 35.338L149.84 28.597C149.727 28.4254 149.84 28.1853 150.037 28.1853H153.535C153.653 28.1853 153.765 28.2482 153.829 28.3454L156.423 32.2276L156.84 32.8509L157.466 33.7828L157.883 34.4061L158.819 35.8126C158.877 35.9041 158.877 36.0241 158.819 36.1156V36.1099Z" fill="#D3A02A"/>
<path d="M163.642 28.1854H160.145C160.027 28.1854 159.915 28.2483 159.851 28.3455L157.883 31.2901L157.412 31.999C157.321 32.1363 157.321 32.3135 157.412 32.4507L157.786 33.0111L159.145 35.0408C159.241 35.1838 159.444 35.1838 159.541 35.0408L163.851 28.5914C163.963 28.4198 163.851 28.1797 163.653 28.1797L163.642 28.1854Z" fill="#D3A02A"/>
<path d="M62.3961 43.6287L56.1765 28.4199H59.043L64.5887 42.1708H62.9202L68.5676 28.4199H71.188L64.9898 43.6287H62.3908H62.3961Z" fill="#EAEAEA"/>
<path d="M72.6961 43.6287V28.4199H75.338V43.6287H72.6961Z" fill="#EAEAEA"/>
<path d="M79.1777 43.6287V28.4199H85.4187C86.9375 28.4199 88.2798 28.7344 89.451 29.3633C90.6222 29.9923 91.5367 30.8785 92.1838 32.0277C92.8362 33.1712 93.1571 34.5034 93.1571 36.0243C93.1571 37.5452 92.8309 38.8774 92.1838 40.0209C91.5314 41.1645 90.6222 42.0507 89.451 42.6853C88.2798 43.3143 86.9322 43.6287 85.4187 43.6287H79.1777ZM81.8196 41.2388H85.2529C86.3225 41.2388 87.2477 41.0215 88.0285 40.587C88.8093 40.1524 89.4189 39.5464 89.8575 38.7631C90.296 37.9798 90.5153 37.0707 90.5153 36.0243C90.5153 34.978 90.296 34.0346 89.8575 33.2627C89.4189 32.4966 88.8093 31.8962 88.0285 31.4617C87.2477 31.0271 86.3225 30.8099 85.2529 30.8099H81.8196V41.2388Z" fill="#EAEAEA"/>
<path d="M95.9648 43.6287V28.4199H101.799C103.698 28.4199 105.185 28.9002 106.259 29.8665C107.334 30.8327 107.875 32.1535 107.875 33.8345C107.875 34.9494 107.629 35.9043 107.142 36.7047C106.655 37.4995 105.96 38.117 105.056 38.5515C104.152 38.9861 103.072 39.2033 101.815 39.2033H97.4461L98.6066 37.9454V43.6402H95.9648V43.6287ZM98.6066 38.2428L97.4461 36.8763H101.692C102.858 36.8763 103.735 36.6075 104.324 36.0701C104.912 35.5326 105.206 34.7893 105.206 33.8345C105.206 32.8797 104.912 32.1364 104.324 31.6046C103.735 31.0786 102.858 30.8099 101.692 30.8099H97.4461L98.6066 29.4205V38.2428ZM105.275 43.6287L101.676 38.1113H104.5L108.115 43.6287H105.27H105.275Z" fill="#EAEAEA"/>
<path d="M110.821 43.6287V28.4199H113.463V43.6287H110.821Z" fill="#EAEAEA"/>
<path d="M123.972 43.8461C122.875 43.8461 121.854 43.6517 120.913 43.2572C119.971 42.8627 119.153 42.3138 118.463 41.6048C117.773 40.8958 117.239 40.0668 116.859 39.1176C116.479 38.1685 116.292 37.1394 116.292 36.0187C116.292 34.8981 116.479 33.8517 116.859 32.9026C117.239 31.9535 117.773 31.1302 118.463 30.4269C119.153 29.7236 119.966 29.1747 120.902 28.7859C121.838 28.3971 122.859 28.197 123.972 28.197C125.084 28.197 126.084 28.3914 127.02 28.7745C127.956 29.1576 128.763 29.7008 129.448 30.404C130.132 31.1073 130.662 31.9363 131.042 32.8912C131.421 33.846 131.608 34.8923 131.608 36.0187C131.608 37.1451 131.416 38.1857 131.042 39.1348C130.662 40.0839 130.132 40.913 129.448 41.622C128.763 42.3309 127.956 42.8798 127.02 43.2629C126.084 43.646 125.068 43.8404 123.972 43.8404V43.8461ZM123.972 41.3704C124.688 41.3704 125.351 41.2389 125.956 40.9816C126.56 40.7186 127.084 40.3526 127.528 39.8724C127.972 39.3921 128.325 38.8318 128.576 38.18C128.828 37.5281 128.951 36.8134 128.951 36.0301C128.951 35.2468 128.828 34.5321 128.587 33.8803C128.346 33.2285 127.993 32.6625 127.539 32.1879C127.084 31.7076 126.555 31.3417 125.956 31.0787C125.351 30.8157 124.694 30.6899 123.972 30.6899C123.25 30.6899 122.587 30.8214 121.972 31.0787C121.357 31.3417 120.822 31.7133 120.378 32.1993C119.929 32.6853 119.576 33.2514 119.319 33.8918C119.062 34.5378 118.934 35.2525 118.934 36.0301C118.934 36.8077 119.062 37.5053 119.319 38.1571C119.576 38.8089 119.929 39.3749 120.378 39.8609C120.827 40.3469 121.357 40.7186 121.972 40.9816C122.587 41.2446 123.255 41.3704 123.972 41.3704Z" fill="#EAEAEA"/>
<path d="M138.823 43.846C137.71 43.846 136.651 43.6744 135.641 43.3371C134.63 42.9998 133.822 42.5595 133.213 42.022L134.127 39.8265C134.694 40.3068 135.4 40.7013 136.24 41.0215C137.079 41.3417 137.94 41.5017 138.823 41.5017C139.566 41.5017 140.17 41.416 140.63 41.2387C141.09 41.0672 141.427 40.8271 141.646 40.5298C141.86 40.2324 141.973 39.8951 141.973 39.5177C141.973 39.0546 141.818 38.683 141.507 38.3971C141.197 38.1169 140.791 37.8882 140.299 37.7224C139.801 37.5566 139.256 37.4022 138.652 37.265C138.047 37.1278 137.443 36.9563 136.844 36.7561C136.24 36.556 135.689 36.2987 135.186 35.9843C134.683 35.6755 134.282 35.2581 133.978 34.7321C133.673 34.2118 133.523 33.5428 133.523 32.7309C133.523 31.919 133.732 31.1472 134.143 30.4611C134.555 29.7749 135.186 29.2203 136.031 28.8087C136.876 28.397 137.951 28.1912 139.251 28.1912C140.106 28.1912 140.951 28.3055 141.791 28.5399C142.63 28.7744 143.363 29.106 143.983 29.5405L143.149 31.7361C142.513 31.3301 141.855 31.0271 141.176 30.8327C140.497 30.6383 139.85 30.5411 139.224 30.5411C138.507 30.5411 137.914 30.6383 137.454 30.8213C136.994 31.0099 136.657 31.2615 136.448 31.5703C136.24 31.8847 136.133 32.2278 136.133 32.5994C136.133 33.0626 136.288 33.4342 136.593 33.7201C136.897 34.0002 137.299 34.2232 137.791 34.3833C138.283 34.5434 138.839 34.6921 139.448 34.8407C140.058 34.9837 140.662 35.1552 141.256 35.3496C141.85 35.544 142.4 35.8013 142.903 36.11C143.406 36.4188 143.807 36.8362 144.112 37.3508C144.417 37.8653 144.566 38.5229 144.566 39.3176C144.566 40.1124 144.358 40.8785 143.946 41.5646C143.534 42.2507 142.898 42.8054 142.047 43.217C141.192 43.6287 140.117 43.8345 138.817 43.8345L138.823 43.846Z" fill="#EAEAEA"/>
</svg>
