<svg width="1512" height="1634" viewBox="0 0 1512 1634" fill="none" xmlns="http://www.w3.org/2000/svg">
<g opacity="0.05">
<path d="M629.889 451.457H491.504C486.869 451.457 482.513 449.215 479.796 445.413L405.788 341.639C403.869 338.958 399.913 338.958 397.995 341.639L385.447 359.208L361.99 392.106C354.797 402.191 343.168 408.194 330.781 408.194H310.52C306.604 408.194 304.366 403.792 306.604 400.59L360.791 324.63L377.215 301.578L451.623 197.244C455.459 191.881 463.411 191.881 467.248 197.244L637.682 436.209C642.197 442.572 637.682 451.376 629.889 451.376V451.457Z" fill="url(#paint0_linear_918_1811)"/>
<path d="M-18.4114 2.10572e-06L119.974 1.42343e-05C124.609 1.46406e-05 128.965 2.24115 131.683 6.04314L205.69 109.817C207.609 112.499 211.565 112.499 213.483 109.817L226.031 92.2482L249.488 59.351C256.681 49.2657 268.31 43.2626 280.697 43.2626L300.958 43.2626C304.874 43.2626 307.112 47.6649 304.874 50.8666L250.687 126.826L234.263 149.878L159.855 254.213C156.019 259.576 148.067 259.576 144.23 254.213L-26.2038 15.2479C-30.7194 8.88461 -26.2038 0.080049 -18.4114 0.0800497L-18.4114 2.10572e-06Z" fill="url(#paint1_linear_918_1811)"/>
<path d="M1297.41 451.457H1159.03C1154.39 451.457 1150.03 449.215 1147.32 445.413L1073.31 341.639C1071.39 338.958 1067.44 338.958 1065.52 341.639L1052.97 359.208L1029.51 392.106C1022.32 402.191 1010.69 408.194 998.303 408.194H978.042C974.126 408.194 971.888 403.792 974.126 400.59L1028.31 324.63L1044.74 301.578L1119.14 197.244C1122.98 191.881 1130.93 191.881 1134.77 197.244L1305.2 436.209C1309.72 442.572 1305.2 451.376 1297.41 451.376V451.457Z" fill="url(#paint2_linear_918_1811)"/>
<path d="M649.112 2.10573e-06L787.497 1.42343e-05C792.133 1.46406e-05 796.488 2.24115 799.206 6.04314L873.214 109.817C875.132 112.499 879.088 112.499 881.006 109.817L893.554 92.2482L917.011 59.351C924.204 49.2657 935.833 43.2626 948.221 43.2626L968.481 43.2626C972.397 43.2626 974.635 47.6649 972.397 50.8666L918.21 126.826L901.786 149.878L827.378 254.213C823.542 259.576 815.59 259.576 811.754 254.213L641.319 15.2479C636.804 8.88461 641.319 0.080049 649.112 0.0800497L649.112 2.10573e-06Z" fill="url(#paint3_linear_918_1811)"/>
</g>
<g opacity="0.05">
<path d="M904.889 1015.46H766.504C761.869 1015.46 757.513 1013.22 754.796 1009.41L680.788 905.639C678.869 902.958 674.913 902.958 672.995 905.639L660.447 923.208L636.99 956.106C629.797 966.191 618.168 972.194 605.781 972.194H585.52C581.604 972.194 579.366 967.792 581.604 964.59L635.791 888.63L652.215 865.578L726.623 761.244C730.459 755.881 738.411 755.881 742.248 761.244L912.682 1000.21C917.197 1006.57 912.682 1015.38 904.889 1015.38V1015.46Z" fill="url(#paint4_linear_918_1811)"/>
<path d="M256.589 564L394.974 564C399.609 564 403.965 566.241 406.683 570.043L480.69 673.817C482.609 676.499 486.565 676.499 488.483 673.817L501.031 656.248L524.488 623.351C531.681 613.266 543.31 607.263 555.697 607.263L575.958 607.263C579.874 607.263 582.112 611.665 579.874 614.867L525.687 690.826L509.263 713.878L434.855 818.213C431.019 823.576 423.067 823.576 419.23 818.213L248.796 579.248C244.281 572.885 248.796 564.08 256.589 564.08L256.589 564Z" fill="url(#paint5_linear_918_1811)"/>
<path d="M1572.41 1015.46H1434.03C1429.39 1015.46 1425.03 1013.22 1422.32 1009.41L1348.31 905.639C1346.39 902.958 1342.44 902.958 1340.52 905.639L1327.97 923.208L1304.51 956.106C1297.32 966.191 1285.69 972.194 1273.3 972.194H1253.04C1249.13 972.194 1246.89 967.792 1249.13 964.59L1303.31 888.63L1319.74 865.578L1394.14 761.244C1397.98 755.881 1405.93 755.881 1409.77 761.244L1580.2 1000.21C1584.72 1006.57 1580.2 1015.38 1572.41 1015.38V1015.46Z" fill="url(#paint6_linear_918_1811)"/>
<path d="M924.112 564L1062.5 564C1067.13 564 1071.49 566.241 1074.21 570.043L1148.21 673.817C1150.13 676.499 1154.09 676.499 1156.01 673.817L1168.55 656.248L1192.01 623.351C1199.2 613.266 1210.83 607.263 1223.22 607.263L1243.48 607.263C1247.4 607.263 1249.63 611.665 1247.4 614.867L1193.21 690.826L1176.79 713.878L1102.38 818.213C1098.54 823.576 1090.59 823.576 1086.75 818.213L916.319 579.248C911.804 572.885 916.319 564.08 924.112 564.08L924.112 564Z" fill="url(#paint7_linear_918_1811)"/>
</g>
<g opacity="0.05">
<path d="M629.889 1579.46H491.504C486.868 1579.46 482.513 1577.22 479.795 1573.41L405.787 1469.64C403.869 1466.96 399.913 1466.96 397.995 1469.64L385.447 1487.21L361.99 1520.11C354.797 1530.19 343.168 1536.19 330.78 1536.19H310.52C306.604 1536.19 304.366 1531.79 306.604 1528.59L360.791 1452.63L377.215 1429.58L451.623 1325.24C455.459 1319.88 463.411 1319.88 467.248 1325.24L637.682 1564.21C642.197 1570.57 637.682 1579.38 629.889 1579.38V1579.46Z" fill="url(#paint8_linear_918_1811)"/>
<path d="M-18.4115 1128L119.974 1128C124.609 1128 128.965 1130.24 131.682 1134.04L205.69 1237.82C207.608 1240.5 211.565 1240.5 213.483 1237.82L226.031 1220.25L249.488 1187.35C256.681 1177.27 268.309 1171.26 280.697 1171.26L300.958 1171.26C304.874 1171.26 307.112 1175.66 304.874 1178.87L250.687 1254.83L234.263 1277.88L159.855 1382.21C156.019 1387.58 148.066 1387.58 144.23 1382.21L-26.2039 1143.25C-30.7196 1136.88 -26.204 1128.08 -18.4115 1128.08L-18.4115 1128Z" fill="url(#paint9_linear_918_1811)"/>
<path d="M1297.41 1579.46H1159.03C1154.39 1579.46 1150.03 1577.22 1147.32 1573.41L1073.31 1469.64C1071.39 1466.96 1067.44 1466.96 1065.52 1469.64L1052.97 1487.21L1029.51 1520.11C1022.32 1530.19 1010.69 1536.19 998.303 1536.19H978.042C974.126 1536.19 971.888 1531.79 974.126 1528.59L1028.31 1452.63L1044.74 1429.58L1119.14 1325.24C1122.98 1319.88 1130.93 1319.88 1134.77 1325.24L1305.2 1564.21C1309.72 1570.57 1305.2 1579.38 1297.41 1579.38V1579.46Z" fill="url(#paint10_linear_918_1811)"/>
<path d="M649.112 1128L787.497 1128C792.132 1128 796.488 1130.24 799.205 1134.04L873.213 1237.82C875.132 1240.5 879.088 1240.5 881.006 1237.82L893.554 1220.25L917.011 1187.35C924.204 1177.27 935.833 1171.26 948.22 1171.26L968.481 1171.26C972.397 1171.26 974.635 1175.66 972.397 1178.87L918.21 1254.83L901.786 1277.88L827.378 1382.21C823.542 1387.58 815.59 1387.58 811.753 1382.21L641.319 1143.25C636.804 1136.88 641.319 1128.08 649.112 1128.08L649.112 1128Z" fill="url(#paint11_linear_918_1811)"/>
</g>
<defs>
<linearGradient id="paint0_linear_918_1811" x1="472.597" y1="193.222" x2="472.597" y2="451.457" gradientUnits="userSpaceOnUse">
<stop stop-color="#2E2E2E"/>
<stop offset="1" stop-color="#949494"/>
</linearGradient>
<linearGradient id="paint1_linear_918_1811" x1="138.882" y1="258.235" x2="138.882" y2="1.58915e-05" gradientUnits="userSpaceOnUse">
<stop stop-color="#2E2E2E"/>
<stop offset="1" stop-color="#949494"/>
</linearGradient>
<linearGradient id="paint2_linear_918_1811" x1="1140.12" y1="193.222" x2="1140.12" y2="451.457" gradientUnits="userSpaceOnUse">
<stop stop-color="#2E2E2E"/>
<stop offset="1" stop-color="#949494"/>
</linearGradient>
<linearGradient id="paint3_linear_918_1811" x1="806.405" y1="258.235" x2="806.405" y2="1.58915e-05" gradientUnits="userSpaceOnUse">
<stop stop-color="#2E2E2E"/>
<stop offset="1" stop-color="#949494"/>
</linearGradient>
<linearGradient id="paint4_linear_918_1811" x1="747.597" y1="757.222" x2="747.597" y2="1015.46" gradientUnits="userSpaceOnUse">
<stop stop-color="#2E2E2E"/>
<stop offset="1" stop-color="#949494"/>
</linearGradient>
<linearGradient id="paint5_linear_918_1811" x1="413.882" y1="822.235" x2="413.882" y2="564" gradientUnits="userSpaceOnUse">
<stop stop-color="#2E2E2E"/>
<stop offset="1" stop-color="#949494"/>
</linearGradient>
<linearGradient id="paint6_linear_918_1811" x1="1415.12" y1="757.222" x2="1415.12" y2="1015.46" gradientUnits="userSpaceOnUse">
<stop stop-color="#2E2E2E"/>
<stop offset="1" stop-color="#949494"/>
</linearGradient>
<linearGradient id="paint7_linear_918_1811" x1="1081.4" y1="822.235" x2="1081.4" y2="564" gradientUnits="userSpaceOnUse">
<stop stop-color="#2E2E2E"/>
<stop offset="1" stop-color="#949494"/>
</linearGradient>
<linearGradient id="paint8_linear_918_1811" x1="472.596" y1="1321.22" x2="472.596" y2="1579.46" gradientUnits="userSpaceOnUse">
<stop stop-color="#2E2E2E"/>
<stop offset="1" stop-color="#949494"/>
</linearGradient>
<linearGradient id="paint9_linear_918_1811" x1="138.881" y1="1386.23" x2="138.881" y2="1128" gradientUnits="userSpaceOnUse">
<stop stop-color="#2E2E2E"/>
<stop offset="1" stop-color="#949494"/>
</linearGradient>
<linearGradient id="paint10_linear_918_1811" x1="1140.12" y1="1321.22" x2="1140.12" y2="1579.46" gradientUnits="userSpaceOnUse">
<stop stop-color="#2E2E2E"/>
<stop offset="1" stop-color="#949494"/>
</linearGradient>
<linearGradient id="paint11_linear_918_1811" x1="806.404" y1="1386.23" x2="806.404" y2="1128" gradientUnits="userSpaceOnUse">
<stop stop-color="#2E2E2E"/>
<stop offset="1" stop-color="#949494"/>
</linearGradient>
</defs>
</svg>
